<?xml version="1.0" encoding="utf-8"?>
<!-- Generator: Adobe Illustrator 25.2.3, SVG Export Plug-In . SVG Version: 6.00 Build 0)  -->
<svg version="1.1" id="Layer_1" xmlns="http://www.w3.org/2000/svg" xmlns:xlink="http://www.w3.org/1999/xlink" x="0px" y="0px"
	 viewBox="0 0 97 61" style="enable-background:new 0 0 97 61;" xml:space="preserve">
<style type="text/css">
	.st0{fill:#FCF7F7;}
	.st1{fill:#FAF5EF;}
</style>
<path class="st0" d="M0.2,20.7L1.4,21c4.2,0,6.7-0.1,7.5-0.2c2.3-5.2,5-10.6,8.3-16.3c0.3-0.3,1-0.4,2-0.4c1.1,0,1.6,0.3,1.6,0.8
	L18,9.5c-2.4,4.1-4.4,7.8-6,11.2l9.9-0.5c1.5-0.1,3.6-0.3,6.3-0.7c1.6-3.2,3.4-6.3,5.2-9.2c1.8-3,3-4.5,3.5-4.5s1,0.1,1.5,0.4
	c0.6,0.2,0.8,0.4,0.8,0.7c-0.4,0.6-0.9,1.3-1.5,2c-0.5,0.8-1.1,1.5-1.6,2.3c-6,8-9,14-9,17.9c0,1.8,0.7,2.7,2.2,2.7l2-0.3
	c0.1,0,0.2,0,0.2,0.1c0,0.2-0.4,0.4-1.1,0.7s-1.3,0.4-1.7,0.4c-0.9,0-1.7-0.4-2.3-1.2c-0.6-0.8-0.8-1.8-0.8-3c0-2.3,0.7-4.9,2-7.7
	c-6.5,1.6-12.1,2.3-16.8,2.3c-2.9,6.5-4.4,11.3-4.4,14.4c0,1,0.1,1.7,0.4,2.1C7,40,7.2,40.3,7.2,40.4s-0.1,0.1-0.3,0.1
	c-1.4,0-2.2-1.5-2.2-4.5s1-7.2,3.1-12.6c-2.3,0.2-4,0.2-4.9,0.2c-2,0-3-0.9-3-2.8C0,20.8,0.1,20.7,0.2,20.7z"/>
<path class="st0" d="M46.3,24.2c0.2,0,0.4,0.1,0.4,0.3c0,0.2,0,0.3-0.1,0.5c-4.2,6.1-7.7,9.2-10.5,9.2c-3.4,0-5.1-1.6-5.1-4.8
	c0-2.4,1.2-5.4,3.6-8.9c2.5-3.5,4.8-5.2,7.1-5.2c1,0,1.8,0.3,2.5,1c0.8,0.6,1.1,1.3,1.1,2.2c0,1.5-0.9,3-2.8,4.5
	c-1.9,1.5-3.7,2.2-5.5,2.2c-0.4,0-0.5-0.1-0.5-0.2l0.2-0.3c4.6-1.4,6.9-3.8,6.9-7.1c0-0.5-0.2-0.7-0.5-0.7c-0.5,0-1.3,0.5-2.4,1.4
	c-2,1.6-3.7,3.6-5.1,6c-1.4,2.4-2.2,4.4-2.2,6.1c0,1.7,0.6,2.5,1.9,2.5c1.4,0,3-0.7,4.8-2.2c1.1-1,2.4-2.4,3.9-4
	C45.5,25,46.2,24.2,46.3,24.2z"/>
<path class="st0" d="M49,33.1l1-0.3c0.2,0,0.3,0.1,0.3,0.3c0,0.6-0.7,1-2.1,1c-1.9,0-2.9-1.6-2.9-4.8c0-2.1,0.6-5.5,1.9-10.1
	c1.3-4.7,2.9-9,4.9-13.1C54.1,2,55.8,0,57.4,0c0.9,0,1.8,0.3,2.7,0.9s1.3,1.2,1.3,1.9c0,2.9-4.3,9.3-12.8,19.3c-0.7,3-1,5.6-1,7.8
	S48.1,33.1,49,33.1z M59.9,2.6c0-0.5-0.1-0.7-0.4-0.7c-1.2,0-3,2.1-5.2,6.4c-2.3,4.3-4,8.3-5.2,12.2C56.3,10.9,59.9,5,59.9,2.6z"/>
<path class="st0" d="M64.2,6.7c0.1,0,0.1,0.1,0.1,0.3L64,8.8c-0.6,2.5-1.5,3.7-2.8,3.7c-0.9,0-1.6-0.2-2.2-0.7
	C60.6,10.7,62.3,9.1,64.2,6.7z M61,16.6c-1.2,2.1-2.4,4.8-3.6,8.1c-1.1,3.2-1.7,5.5-1.7,6.7s0.3,1.9,0.8,1.9c0.4,0,0.8-0.2,1.4-0.7
	c0.6-0.4,0.9-0.7,1-0.8c0.1-0.1,0.3-0.2,0.4-0.4c0.2,0,0.2,0.1,0.2,0.2c0,0.5-0.6,1-1.7,1.7c-1.1,0.7-1.9,1-2.5,1
	c-1.5,0-2.3-1.1-2.3-3.3c0-3.3,1.2-7.7,3.6-13.2c0-0.2,0.1-0.5,0.3-0.9s0.4-0.7,0.5-0.8c0.3-0.3,0.7-0.4,1.1-0.4
	C60.1,15.8,60.9,16,61,16.6z"/>
<path class="st0" d="M78,16.4c0-0.2-0.1-0.1-0.3,0.3c-1.1,2-2.1,4.5-3,7.4s-1.3,4.8-1.3,5.7c0,2.4,0.4,3.7,1.3,3.7
	c0.3,0,0.6-0.2,1.1-0.6c0.5-0.4,0.7-0.5,0.6-0.5c0.1,0,0.2,0.2,0.2,0.5c0,1-0.6,1.6-1.8,1.6c-1.2,0-2.1-0.5-2.8-1.6
	c-0.6-1-1-2.5-1-4.5s0.5-4.6,1.6-7.8c1-3.2,2-4.9,3-4.9h0.3C77.3,15.5,78,15.8,78,16.4z M73.3,17c0,0,0.1,0.1,0.1,0.2
	s-0.2,0.3-0.5,0.7c-4.3,5.3-7.4,9.7-9,13.5L63.3,33c-0.2,0.4-0.5,0.7-0.9,0.7s-0.8-0.1-1.2-0.3s-0.7-0.4-0.7-0.7
	c0-0.7,0.7-3.1,2-7.2c1.3-4.2,2-7.3,2-9.4c0-0.6-0.1-0.9-0.4-1c-0.3-0.1-0.6-0.2-0.8-0.1c-0.3,0-0.4-0.1-0.4-0.3
	c0-0.4,0.3-0.5,0.9-0.5c2.7,0,4,1.1,4,3.3c0,0.8-1,4.1-2.9,9.8c1.8-2.8,3.5-5.2,5.1-7.2C71.6,18,72.7,17,73.3,17z"/>
<path class="st0" d="M86.7,30.4c0.6,1.1,0.9,2.6,0.9,4.5c0,0.4,0,0.8-0.1,1.1c1.6,0.7,3,1.6,4.1,2.6c1.1,1.1,1.7,2.1,1.7,3.1
	s-0.2,1.5-0.7,1.5c-0.1,0-0.2-0.1-0.3-0.4c0.3-0.4,0.5-0.9,0.5-1.3c0-0.8-0.5-1.7-1.6-2.5s-2.3-1.5-3.6-1.9c-0.5,4.1-2,8-4.6,11.7
	s-5.8,6.6-9.8,8.8c-3.9,2.2-8,3.3-12.1,3.3c-2.8,0-5.1-0.8-7-2.3c-1.9-1.6-2.8-3.7-2.8-6.5c0-2.7,1.5-5.5,4.6-8.2s6.9-4.9,11.5-6.5
	c4.5-1.6,9-2.4,13.4-2.4c2,0,3.8,0.2,5.2,0.5c0.2-0.5,0.2-0.9,0.2-1.3c0-1.4-0.2-2.3-0.5-2.9c-1.6,1.4-3,2.2-4.3,2.2
	S79,32.9,78,31.6c-1-1.2-1.4-2.6-1.4-4c0-2.8,1.5-5.7,4.6-8.7c0-2.3,0.2-3.8,0.7-4.6s1.5-1.2,2.8-1.2c1.4,0,2.9,1.3,4.6,4
	c2.9,0.5,4.3,1.6,4.3,3.2c0,0.4-0.1,0.7-0.4,1.1c-0.2,0.4-0.4,0.5-0.7,0.5c-0.2,0-0.4-0.1-0.4-0.2c0.4-0.3,0.6-0.6,0.6-1
	c0-1.2-1-1.8-2.9-1.8c0,0.3,0.1,0.7,0.1,1.3C90.2,24.1,89.1,27.5,86.7,30.4z M86.7,16.8c-0.6-1.3-1.4-2-2.5-2s-1.7,1.1-1.7,3.2v0.1
	c1.3-0.9,2.6-1.3,3.7-1.3C86.2,16.8,86.7,16.8,86.7,16.8z M88.2,22c0-1.1-0.2-2.1-0.5-3c-0.7,0.2-1.7,0.7-3,1.4
	c-1.2,0.6-1.9,1.1-1.9,1.4s1.1,2.7,3.2,7.2C87.5,26.9,88.2,24.5,88.2,22z M79.1,29.7c0,2.1,0.8,3.1,2.4,3.1c1.4,0,2.7-1,4-2.9
	l-3.1-7.5c-0.8,0.8-1.6,2-2.3,3.4C79.4,27.3,79.1,28.5,79.1,29.7z M81.8,36.6c-3.8,0-7.6,0.5-11.3,1.4c-3.7,1-6.9,2.2-9.5,3.7
	s-4.7,3.2-6.3,5s-2.4,3.6-2.4,5.5s0.7,3.4,2.2,4.5c1.4,1.2,3.4,1.7,6,1.7c5.5,0,10.8-2.2,15.8-6.6c4.9-4.4,8.1-9.4,9.5-15
	C84.9,36.7,83.5,36.6,81.8,36.6z"/>
<path class="st1" d="M95.1,30.5c0.5,0,0.9,0.2,1.3,0.5s0.6,0.6,0.6,1c0,0.4-0.2,0.7-0.6,1s-0.7,0.4-1.1,0.4c-1.3,0-1.9-0.5-1.9-1.6
	C93.4,30.9,94,30.5,95.1,30.5z"/>
</svg>
